<svg width="196" height="117" viewBox="0 0 196 117" fill="none" xmlns="http://www.w3.org/2000/svg">
<path d="M58.7822 49.0322H180.782" stroke="#DFDEDE" stroke-width="2"/>
<circle cx="177.782" cy="48.0322" r="18" fill="#DFDEDE"/>
<path d="M179.73 47.5162C180.486 47.7082 181.062 48.0742 181.458 48.6142C181.866 49.1422 182.07 49.8022 182.07 50.5942C182.07 51.6862 181.668 52.5562 180.864 53.2042C180.06 53.8522 178.974 54.1762 177.606 54.1762C176.826 54.1762 176.076 54.0562 175.356 53.8162C174.636 53.5762 174.024 53.2402 173.52 52.8082C173.244 52.5682 173.106 52.2862 173.106 51.9622C173.106 51.6982 173.178 51.4762 173.322 51.2962C173.478 51.1042 173.658 51.0082 173.862 51.0082C173.982 51.0082 174.09 51.0322 174.186 51.0802C174.282 51.1162 174.414 51.1822 174.582 51.2782C175.086 51.6142 175.566 51.8722 176.022 52.0522C176.478 52.2322 176.976 52.3222 177.516 52.3222C178.308 52.3222 178.896 52.1662 179.28 51.8542C179.664 51.5302 179.856 51.0442 179.856 50.3962C179.856 49.7602 179.652 49.2922 179.244 48.9922C178.848 48.6802 178.23 48.5242 177.39 48.5242H176.364C176.088 48.5242 175.872 48.4342 175.716 48.2542C175.572 48.0622 175.5 47.8462 175.5 47.6062C175.5 47.3542 175.572 47.1382 175.716 46.9582C175.872 46.7782 176.088 46.6882 176.364 46.6882H177.084C178.728 46.6882 179.55 46.0702 179.55 44.8342C179.55 44.2582 179.376 43.8142 179.028 43.5022C178.68 43.1902 178.2 43.0342 177.588 43.0342C176.712 43.0342 175.776 43.3822 174.78 44.0782C174.612 44.1742 174.48 44.2462 174.384 44.2942C174.288 44.3302 174.18 44.3482 174.06 44.3482C173.856 44.3482 173.676 44.2582 173.52 44.0782C173.376 43.8862 173.304 43.6582 173.304 43.3942C173.304 43.2142 173.334 43.0642 173.394 42.9442C173.466 42.8122 173.574 42.6802 173.718 42.5482C174.222 42.1282 174.822 41.7982 175.518 41.5582C176.226 41.3062 176.946 41.1802 177.678 41.1802C178.926 41.1802 179.916 41.4862 180.648 42.0982C181.392 42.7102 181.764 43.5262 181.764 44.5462C181.752 45.2422 181.566 45.8542 181.206 46.3822C180.858 46.8982 180.366 47.2762 179.73 47.5162Z" fill="white"/>
<g filter="url(#filter0_d_28_4122)">
<circle cx="58.7822" cy="48.0322" r="18" fill="#40BFFF"/>
</g>
<g filter="url(#filter1_d_28_4122)">
<path d="M62.4037 52.1602C63.1237 52.1602 63.4837 52.4662 63.4837 53.0782C63.4837 53.7142 63.1237 54.0322 62.4037 54.0322H56.3197C55.5877 54.0322 55.2217 53.7142 55.2217 53.0782C55.2217 52.4662 55.5877 52.1602 56.3197 52.1602H58.1917V43.9522L56.4637 45.0142C56.2957 45.1102 56.1457 45.1582 56.0137 45.1582C55.7617 45.1582 55.5457 45.0502 55.3657 44.8342C55.1977 44.6182 55.1137 44.3782 55.1137 44.1142C55.1137 43.7662 55.2697 43.4962 55.5817 43.3042L58.3717 41.5762C58.7317 41.3602 59.0737 41.2522 59.3977 41.2522C59.7337 41.2522 60.0037 41.3542 60.2077 41.5582C60.4117 41.7622 60.5137 42.0442 60.5137 42.4042V52.1602H62.4037Z" fill="white"/>
</g>
<circle cx="118.782" cy="48.0322" r="18" fill="#DFDEDE"/>
<path d="M122.341 52.1602C123.061 52.1602 123.421 52.4662 123.421 53.0782C123.421 53.7142 123.061 54.0322 122.341 54.0322H115.501C115.189 54.0322 114.943 53.9422 114.763 53.7622C114.583 53.5702 114.493 53.3362 114.493 53.0602C114.493 52.7002 114.631 52.3762 114.907 52.0882L119.011 47.6782C119.515 47.1262 119.881 46.6222 120.109 46.1662C120.349 45.6982 120.469 45.2362 120.469 44.7802C120.469 44.2162 120.307 43.7842 119.983 43.4842C119.659 43.1842 119.197 43.0342 118.597 43.0342C118.105 43.0342 117.625 43.1302 117.157 43.3222C116.701 43.5022 116.239 43.7542 115.771 44.0782C115.651 44.1622 115.531 44.2342 115.411 44.2942C115.291 44.3422 115.171 44.3662 115.051 44.3662C114.847 44.3662 114.667 44.2702 114.511 44.0782C114.367 43.8862 114.295 43.6582 114.295 43.3942C114.295 43.2142 114.325 43.0582 114.385 42.9262C114.457 42.7942 114.565 42.6682 114.709 42.5482C115.237 42.1282 115.855 41.7982 116.563 41.5582C117.271 41.3062 117.979 41.1802 118.687 41.1802C119.923 41.1802 120.907 41.4922 121.639 42.1162C122.383 42.7402 122.755 43.5802 122.755 44.6362C122.755 45.3682 122.599 46.0582 122.287 46.7062C121.975 47.3422 121.447 48.0562 120.703 48.8482L117.589 52.1602H122.341Z" fill="white"/>
<defs>
<filter id="filter0_d_28_4122" x="0.782227" y="0.0322266" width="116" height="116" filterUnits="userSpaceOnUse" color-interpolation-filters="sRGB">
<feFlood flood-opacity="0" result="BackgroundImageFix"/>
<feColorMatrix in="SourceAlpha" type="matrix" values="0 0 0 0 0 0 0 0 0 0 0 0 0 0 0 0 0 0 127 0" result="hardAlpha"/>
<feOffset dy="10"/>
<feGaussianBlur stdDeviation="20"/>
<feColorMatrix type="matrix" values="0 0 0 0 0.970833 0 0 0 0 0.631689 0 0 0 0 0.44092 0 0 0 0.2 0"/>
<feBlend mode="normal" in2="BackgroundImageFix" result="effect1_dropShadow_28_4122"/>
<feBlend mode="normal" in="SourceGraphic" in2="effect1_dropShadow_28_4122" result="shape"/>
</filter>
<filter id="filter1_d_28_4122" x="53.1133" y="39.252" width="12.3701" height="16.7803" filterUnits="userSpaceOnUse" color-interpolation-filters="sRGB">
<feFlood flood-opacity="0" result="BackgroundImageFix"/>
<feColorMatrix in="SourceAlpha" type="matrix" values="0 0 0 0 0 0 0 0 0 0 0 0 0 0 0 0 0 0 127 0" result="hardAlpha"/>
<feOffset/>
<feGaussianBlur stdDeviation="1"/>
<feColorMatrix type="matrix" values="0 0 0 0 0 0 0 0 0 0 0 0 0 0 0 0 0 0 0.25 0"/>
<feBlend mode="normal" in2="BackgroundImageFix" result="effect1_dropShadow_28_4122"/>
<feBlend mode="normal" in="SourceGraphic" in2="effect1_dropShadow_28_4122" result="shape"/>
</filter>
</defs>
</svg>
