<svg width="15" height="12" viewBox="0 0 15 12" fill="none" xmlns="http://www.w3.org/2000/svg">
<path d="M14.633 1.4098C14.0827 1.64992 13.5008 1.80956 12.905 1.8838C13.5331 1.51133 14.0028 0.921404 14.225 0.225799C13.6376 0.574166 12.995 0.819695 12.325 0.951801C11.9138 0.511759 11.3797 0.205656 10.7922 0.0733215C10.2047 -0.0590125 9.59092 -0.0114521 9.03079 0.209815C8.47066 0.431083 7.9901 0.815812 7.65162 1.31395C7.31315 1.81208 7.13244 2.40055 7.133 3.0028C7.13081 3.23269 7.15429 3.46211 7.203 3.6868C6.00962 3.62821 4.84205 3.31842 3.7766 2.77768C2.71115 2.23694 1.77181 1.47743 1.02 0.548801C0.633897 1.2087 0.514311 1.99111 0.685671 2.73621C0.857032 3.48131 1.30641 4.13287 1.942 4.5578C1.46728 4.5452 1.00256 4.41864 0.587 4.1888V4.2218C0.587642 4.91407 0.826574 5.58502 1.26364 6.12187C1.7007 6.65873 2.30925 7.02877 2.987 7.1698C2.73026 7.23789 2.46561 7.27152 2.2 7.2698C2.00938 7.27326 1.81895 7.25617 1.632 7.2188C1.8256 7.81376 2.19875 8.33414 2.70014 8.70839C3.20153 9.08265 3.80655 9.29239 4.432 9.3088C3.3714 10.1375 2.06396 10.5874 0.718 10.5868C0.478037 10.5885 0.238212 10.5748 0 10.5458C1.37117 11.4293 2.96885 11.8968 4.6 11.8918C5.72325 11.8996 6.83685 11.6842 7.87614 11.258C8.91543 10.8319 9.85968 10.2034 10.654 9.40927C11.4484 8.61509 12.0771 7.67098 12.5035 6.63179C12.9299 5.5926 13.1456 4.47905 13.138 3.3558C13.138 3.2228 13.138 3.0948 13.127 2.9678C13.7196 2.54444 14.23 2.01645 14.633 1.4098Z" fill="#03A9F4"/>
</svg>
