<svg width="196" height="117" viewBox="0 0 196 117" fill="none" xmlns="http://www.w3.org/2000/svg">
<path d="M58.9814 49.1592H180.981" stroke="#DFDEDE" stroke-width="2"/>
<circle cx="177.981" cy="48.1592" r="18" fill="#40BFFF"/>
<path d="M179.929 47.6432C180.685 47.8352 181.261 48.2012 181.657 48.7412C182.065 49.2692 182.269 49.9292 182.269 50.7212C182.269 51.8132 181.867 52.6832 181.063 53.3312C180.259 53.9792 179.173 54.3032 177.805 54.3032C177.025 54.3032 176.275 54.1832 175.555 53.9432C174.835 53.7032 174.223 53.3672 173.719 52.9352C173.443 52.6952 173.305 52.4132 173.305 52.0892C173.305 51.8252 173.377 51.6032 173.521 51.4232C173.677 51.2312 173.857 51.1352 174.061 51.1352C174.181 51.1352 174.289 51.1592 174.385 51.2072C174.481 51.2432 174.613 51.3092 174.781 51.4052C175.285 51.7412 175.765 51.9992 176.221 52.1792C176.677 52.3592 177.175 52.4492 177.715 52.4492C178.507 52.4492 179.095 52.2932 179.479 51.9812C179.863 51.6572 180.055 51.1712 180.055 50.5232C180.055 49.8872 179.851 49.4192 179.443 49.1192C179.047 48.8072 178.429 48.6512 177.589 48.6512H176.563C176.287 48.6512 176.071 48.5612 175.915 48.3812C175.771 48.1892 175.699 47.9732 175.699 47.7332C175.699 47.4812 175.771 47.2652 175.915 47.0852C176.071 46.9052 176.287 46.8152 176.563 46.8152H177.283C178.927 46.8152 179.749 46.1972 179.749 44.9612C179.749 44.3852 179.575 43.9412 179.227 43.6292C178.879 43.3172 178.399 43.1612 177.787 43.1612C176.911 43.1612 175.975 43.5092 174.979 44.2052C174.811 44.3012 174.679 44.3732 174.583 44.4212C174.487 44.4572 174.379 44.4752 174.259 44.4752C174.055 44.4752 173.875 44.3852 173.719 44.2052C173.575 44.0132 173.503 43.7852 173.503 43.5212C173.503 43.3412 173.533 43.1912 173.593 43.0712C173.665 42.9392 173.773 42.8072 173.917 42.6752C174.421 42.2552 175.021 41.9252 175.717 41.6852C176.425 41.4332 177.145 41.3072 177.877 41.3072C179.125 41.3072 180.115 41.6132 180.847 42.2252C181.591 42.8372 181.963 43.6532 181.963 44.6732C181.951 45.3692 181.765 45.9812 181.405 46.5092C181.057 47.0252 180.565 47.4032 179.929 47.6432Z" fill="white"/>
<g filter="url(#filter0_d_14_505)">
<circle cx="58.9814" cy="48.1592" r="18" fill="#40BFFF"/>
</g>
<g filter="url(#filter1_d_14_505)">
<path d="M62.603 52.2872C63.323 52.2872 63.683 52.5932 63.683 53.2052C63.683 53.8412 63.323 54.1592 62.603 54.1592H56.519C55.787 54.1592 55.421 53.8412 55.421 53.2052C55.421 52.5932 55.787 52.2872 56.519 52.2872H58.391V44.0792L56.663 45.1412C56.495 45.2372 56.345 45.2852 56.213 45.2852C55.961 45.2852 55.745 45.1772 55.565 44.9612C55.397 44.7452 55.313 44.5052 55.313 44.2412C55.313 43.8932 55.469 43.6232 55.781 43.4312L58.571 41.7032C58.931 41.4872 59.273 41.3792 59.597 41.3792C59.933 41.3792 60.203 41.4812 60.407 41.6852C60.611 41.8892 60.713 42.1712 60.713 42.5312V52.2872H62.603Z" fill="white"/>
</g>
<circle cx="118.981" cy="48.1592" r="18" fill="#40BFFF"/>
<path d="M122.54 52.2872C123.26 52.2872 123.62 52.5932 123.62 53.2052C123.62 53.8412 123.26 54.1592 122.54 54.1592H115.7C115.388 54.1592 115.142 54.0692 114.962 53.8892C114.782 53.6972 114.692 53.4632 114.692 53.1872C114.692 52.8272 114.83 52.5032 115.106 52.2152L119.21 47.8052C119.714 47.2532 120.08 46.7492 120.308 46.2932C120.548 45.8252 120.668 45.3632 120.668 44.9072C120.668 44.3432 120.506 43.9112 120.182 43.6112C119.858 43.3112 119.396 43.1612 118.796 43.1612C118.304 43.1612 117.824 43.2572 117.356 43.4492C116.9 43.6292 116.438 43.8812 115.97 44.2052C115.85 44.2892 115.73 44.3612 115.61 44.4212C115.49 44.4692 115.37 44.4932 115.25 44.4932C115.046 44.4932 114.866 44.3972 114.71 44.2052C114.566 44.0132 114.494 43.7852 114.494 43.5212C114.494 43.3412 114.524 43.1852 114.584 43.0532C114.656 42.9212 114.764 42.7952 114.908 42.6752C115.436 42.2552 116.054 41.9252 116.762 41.6852C117.47 41.4332 118.178 41.3072 118.886 41.3072C120.122 41.3072 121.106 41.6192 121.838 42.2432C122.582 42.8672 122.954 43.7072 122.954 44.7632C122.954 45.4952 122.798 46.1852 122.486 46.8332C122.174 47.4692 121.646 48.1832 120.902 48.9752L117.788 52.2872H122.54Z" fill="white"/>
<defs>
<filter id="filter0_d_14_505" x="0.981445" y="0.15918" width="116" height="116" filterUnits="userSpaceOnUse" color-interpolation-filters="sRGB">
<feFlood flood-opacity="0" result="BackgroundImageFix"/>
<feColorMatrix in="SourceAlpha" type="matrix" values="0 0 0 0 0 0 0 0 0 0 0 0 0 0 0 0 0 0 127 0" result="hardAlpha"/>
<feOffset dy="10"/>
<feGaussianBlur stdDeviation="20"/>
<feColorMatrix type="matrix" values="0 0 0 0 0.970833 0 0 0 0 0.631689 0 0 0 0 0.44092 0 0 0 0.2 0"/>
<feBlend mode="normal" in2="BackgroundImageFix" result="effect1_dropShadow_14_505"/>
<feBlend mode="normal" in="SourceGraphic" in2="effect1_dropShadow_14_505" result="shape"/>
</filter>
<filter id="filter1_d_14_505" x="53.3125" y="39.3789" width="12.3701" height="16.7803" filterUnits="userSpaceOnUse" color-interpolation-filters="sRGB">
<feFlood flood-opacity="0" result="BackgroundImageFix"/>
<feColorMatrix in="SourceAlpha" type="matrix" values="0 0 0 0 0 0 0 0 0 0 0 0 0 0 0 0 0 0 127 0" result="hardAlpha"/>
<feOffset/>
<feGaussianBlur stdDeviation="1"/>
<feColorMatrix type="matrix" values="0 0 0 0 0 0 0 0 0 0 0 0 0 0 0 0 0 0 0.25 0"/>
<feBlend mode="normal" in2="BackgroundImageFix" result="effect1_dropShadow_14_505"/>
<feBlend mode="normal" in="SourceGraphic" in2="effect1_dropShadow_14_505" result="shape"/>
</filter>
</defs>
</svg>
