<svg width="196" height="117" viewBox="0 0 196 117" fill="none" xmlns="http://www.w3.org/2000/svg">
<path d="M58.6758 49.043H180.676" stroke="#DFDEDE" stroke-width="2"/>
<circle cx="177.676" cy="48.043" r="18" fill="#DFDEDE"/>
<path d="M179.623 47.527C180.379 47.719 180.955 48.085 181.351 48.625C181.759 49.153 181.963 49.813 181.963 50.605C181.963 51.697 181.561 52.567 180.757 53.215C179.953 53.863 178.867 54.187 177.499 54.187C176.719 54.187 175.969 54.067 175.249 53.827C174.529 53.587 173.917 53.251 173.413 52.819C173.137 52.579 172.999 52.297 172.999 51.973C172.999 51.709 173.071 51.487 173.215 51.307C173.371 51.115 173.551 51.019 173.755 51.019C173.875 51.019 173.983 51.043 174.079 51.091C174.175 51.127 174.307 51.193 174.475 51.289C174.979 51.625 175.459 51.883 175.915 52.063C176.371 52.243 176.869 52.333 177.409 52.333C178.201 52.333 178.789 52.177 179.173 51.865C179.557 51.541 179.749 51.055 179.749 50.407C179.749 49.771 179.545 49.303 179.137 49.003C178.741 48.691 178.123 48.535 177.283 48.535H176.257C175.981 48.535 175.765 48.445 175.609 48.265C175.465 48.073 175.393 47.857 175.393 47.617C175.393 47.365 175.465 47.149 175.609 46.969C175.765 46.789 175.981 46.699 176.257 46.699H176.977C178.621 46.699 179.443 46.081 179.443 44.845C179.443 44.269 179.269 43.825 178.921 43.513C178.573 43.201 178.093 43.045 177.481 43.045C176.605 43.045 175.669 43.393 174.673 44.089C174.505 44.185 174.373 44.257 174.277 44.305C174.181 44.341 174.073 44.359 173.953 44.359C173.749 44.359 173.569 44.269 173.413 44.089C173.269 43.897 173.197 43.669 173.197 43.405C173.197 43.225 173.227 43.075 173.287 42.955C173.359 42.823 173.467 42.691 173.611 42.559C174.115 42.139 174.715 41.809 175.411 41.569C176.119 41.317 176.839 41.191 177.571 41.191C178.819 41.191 179.809 41.497 180.541 42.109C181.285 42.721 181.657 43.537 181.657 44.557C181.645 45.253 181.459 45.865 181.099 46.393C180.751 46.909 180.259 47.287 179.623 47.527Z" fill="white"/>
<g filter="url(#filter0_d_14_229)">
<circle cx="58.6758" cy="48.043" r="18" fill="#40BFFF"/>
</g>
<g filter="url(#filter1_d_14_229)">
<path d="M62.2973 52.171C63.0173 52.171 63.3773 52.477 63.3773 53.089C63.3773 53.725 63.0173 54.043 62.2973 54.043H56.2133C55.4813 54.043 55.1153 53.725 55.1153 53.089C55.1153 52.477 55.4813 52.171 56.2133 52.171H58.0853V43.963L56.3573 45.025C56.1893 45.121 56.0393 45.169 55.9073 45.169C55.6553 45.169 55.4393 45.061 55.2593 44.845C55.0913 44.629 55.0073 44.389 55.0073 44.125C55.0073 43.777 55.1633 43.507 55.4753 43.315L58.2653 41.587C58.6253 41.371 58.9673 41.263 59.2913 41.263C59.6273 41.263 59.8973 41.365 60.1013 41.569C60.3053 41.773 60.4073 42.055 60.4073 42.415V52.171H62.2973Z" fill="white"/>
</g>
<circle cx="118.676" cy="48.043" r="18" fill="#40BFFF"/>
<path d="M122.235 52.171C122.955 52.171 123.315 52.477 123.315 53.089C123.315 53.725 122.955 54.043 122.235 54.043H115.395C115.083 54.043 114.837 53.953 114.657 53.773C114.477 53.581 114.387 53.347 114.387 53.071C114.387 52.711 114.525 52.387 114.801 52.099L118.905 47.689C119.409 47.137 119.775 46.633 120.003 46.177C120.243 45.709 120.363 45.247 120.363 44.791C120.363 44.227 120.201 43.795 119.877 43.495C119.553 43.195 119.091 43.045 118.491 43.045C117.999 43.045 117.519 43.141 117.051 43.333C116.595 43.513 116.133 43.765 115.665 44.089C115.545 44.173 115.425 44.245 115.305 44.305C115.185 44.353 115.065 44.377 114.945 44.377C114.741 44.377 114.561 44.281 114.405 44.089C114.261 43.897 114.189 43.669 114.189 43.405C114.189 43.225 114.219 43.069 114.279 42.937C114.351 42.805 114.459 42.679 114.603 42.559C115.131 42.139 115.749 41.809 116.457 41.569C117.165 41.317 117.873 41.191 118.581 41.191C119.817 41.191 120.801 41.503 121.533 42.127C122.277 42.751 122.649 43.591 122.649 44.647C122.649 45.379 122.493 46.069 122.181 46.717C121.869 47.353 121.341 48.067 120.597 48.859L117.483 52.171H122.235Z" fill="white"/>
<defs>
<filter id="filter0_d_14_229" x="0.675781" y="0.0429688" width="116" height="116" filterUnits="userSpaceOnUse" color-interpolation-filters="sRGB">
<feFlood flood-opacity="0" result="BackgroundImageFix"/>
<feColorMatrix in="SourceAlpha" type="matrix" values="0 0 0 0 0 0 0 0 0 0 0 0 0 0 0 0 0 0 127 0" result="hardAlpha"/>
<feOffset dy="10"/>
<feGaussianBlur stdDeviation="20"/>
<feColorMatrix type="matrix" values="0 0 0 0 0.970833 0 0 0 0 0.631689 0 0 0 0 0.44092 0 0 0 0.2 0"/>
<feBlend mode="normal" in2="BackgroundImageFix" result="effect1_dropShadow_14_229"/>
<feBlend mode="normal" in="SourceGraphic" in2="effect1_dropShadow_14_229" result="shape"/>
</filter>
<filter id="filter1_d_14_229" x="53.0068" y="39.2627" width="12.3701" height="16.7803" filterUnits="userSpaceOnUse" color-interpolation-filters="sRGB">
<feFlood flood-opacity="0" result="BackgroundImageFix"/>
<feColorMatrix in="SourceAlpha" type="matrix" values="0 0 0 0 0 0 0 0 0 0 0 0 0 0 0 0 0 0 127 0" result="hardAlpha"/>
<feOffset/>
<feGaussianBlur stdDeviation="1"/>
<feColorMatrix type="matrix" values="0 0 0 0 0 0 0 0 0 0 0 0 0 0 0 0 0 0 0.25 0"/>
<feBlend mode="normal" in2="BackgroundImageFix" result="effect1_dropShadow_14_229"/>
<feBlend mode="normal" in="SourceGraphic" in2="effect1_dropShadow_14_229" result="shape"/>
</filter>
</defs>
</svg>
